<svg xmlns="http://www.w3.org/2000/svg" viewBox="0 0 412.47 342.79"><g id="Ebene_2" data-name="Ebene 2"><g id="Layer_1" data-name="Layer 1"><path d="M372.9,161.1v2.75c0,44.43-25.85,77.67-60.41,99.81l-.12.08c-21.82,13.95-37.11,23.49-61.56,28.63-1.49.31-3,.61-4.47.89a200,200,0,0,1-36.77,3.62,198.15,198.15,0,0,1-36.76-3.63c-1.5-.27-3-.57-4.49-.88-24.49-5.15-39.83-14.71-61.68-28.71-.47-.3-.94-.6-1.4-.91-33.86-22.13-59-55.07-59-98.9v-2.73c.11-73.93-4.76-130.58,96.85-146.4h0c18.69-2.91,40.66,0,66.47,0s47.77-2.91,66.46,0h0C377.65,30.54,372.79,87.18,372.9,161.1Z" fill="#e5dbd3"/><path d="M407.37,174.6c-9.48,1.24-17.29-4.08-24.47-13.5C356.47,126.51,338.38,36.71,276.05,14.72h0s12.52,2,29.49-1.9c35.25-8.18,81.25-19.91,89.14-7.2C415,38.4,415.91,169.41,407.37,174.6Z" fill="#a88879"/><path d="M255.45,311c23.74-8.93,43.82-24,51.89-47.2a1.27,1.27,0,0,0,.06-.18,60.19,60.19,0,0,0,3.25-19.75c0-69.13-34-73.4-101.08-73.4s-101.09,4.27-101.09,73.4A60.45,60.45,0,0,0,111,261.52c.22.72.45,1.43.7,2.14,8,23.32,28.15,37.43,52,46.38,14.72,3.87,31.16-.81,45.88-.81S240.73,314.91,255.45,311Z" fill="#ccb7ac"/><path d="M253.73,210.54c0,12.08-13.85,43.76-44.17,43.76s-44.16-31.68-44.16-43.76,25.9-12.41,44.16-12.41S253.73,198.45,253.73,210.54Z" fill="#a88879"/><ellipse cx="137.1" cy="127.97" rx="17.28" ry="23.23" fill="#5e3c31"/><ellipse cx="281.96" cy="127.97" rx="17.28" ry="23.23" fill="#5e3c31"/><path d="M143.1,14.71S22.66,19.65,11,38.48c-20.35,32.8-7.74,130.93.8,136.12C56.1,180.41,63.78,42.68,143.1,14.71Z" fill="#a88879"/><path d="M242.84,273.08c14.66-3.36,17,15.29,2.65,19.55-11.67,3.45-23.59,4.09-35.93,4.09a148,148,0,0,1-35.92-4.09c-14.56-3.66-12-22.91,2.65-19.55,9.35,2.15,22,3.19,33.27,3.19S232,275.58,242.84,273.08Z" fill="#5e3c31"/><path d="M241.16,282.51a2,2,0,0,1,2.35,1.73v38.95c0,10.82-13.37,19.6-29.86,19.6h-8.17c-16.49,0-29.86-8.78-29.86-19.6V288.88c0-3.52,3.67-6.22,7.77-5.73l2.18.25a204.91,204.91,0,0,0,47.93,0Z" fill="#e09ba2"/></g></g></svg>